Coordinates
version=1
nRows=17
nColumns=40
inDegrees=yes

Units are S.I. units (second, meters, Newtons, ...)
If the header above contains a line with 'inDegrees', this indicates whether rotational values are in degrees (yes) or radians (no).

endheader
time	pelvis_tilt	pelvis_list	pelvis_rotation	pelvis_tx	pelvis_ty	pelvis_tz	hip_flexion_r	hip_adduction_r	hip_rotation_r	knee_angle_r	knee_angle_r_beta	ankle_angle_r	subtalar_angle_r	mtp_angle_r	hip_flexion_l	hip_adduction_l	hip_rotation_l	knee_angle_l	knee_angle_l_beta	ankle_angle_l	subtalar_angle_l	mtp_angle_l	lumbar_extension	lumbar_bending	lumbar_rotation	arm_flex_r	arm_add_r	arm_rot_r	elbow_flex_r	pro_sup_r	wrist_flex_r	wrist_dev_r	arm_flex_l	arm_add_l	arm_rot_l	elbow_flex_l	pro_sup_l	wrist_flex_l	wrist_dev_l
     12.35000000	      0.46682415	      6.41049652	      4.89318716	     -0.34747369	      1.05906619	      0.03830947	     34.46370591	    -16.09763180	     -5.05294188	     57.59272322	      1.00518265	    -17.69083094	    -15.33997876	      0.00000000	     82.72313569	     -3.28630836	     -1.32394199	     99.29599906	      1.73304212	     -5.69323841	     -6.74261000	      0.00000000	    -64.86366099	     -2.44372143	     -5.82837626	     84.07379364	     -7.43701858	      1.80225814	     44.23221948	     88.67127406	      0.00000000	      0.00000000	     89.34791508	     -4.33597380	     14.43396210	     38.53850736	     82.37701284	      0.00000000	      0.00000000
     12.35833333	      0.28370754	      5.90726515	      5.06821685	     -0.34847391	      1.05809788	      0.03779845	     35.76826807	    -15.91106400	     -4.79538197	     60.56982229	      1.05714283	    -17.20928521	    -15.37228622	      0.00000000	     82.07946119	     -3.08066605	     -1.05661175	     97.09445739	      1.69461797	     -6.06075630	     -6.80447711	      0.00000000	    -64.58308055	     -1.94086284	     -5.43948390	     84.23171774	     -7.48887210	      2.06000926	     44.17692800	     88.73721900	      0.00000000	      0.00000000	     89.35412555	     -4.40751183	     14.49827767	     38.61342017	     80.79236114	      0.00000000	      0.00000000
     12.36666667	      0.47301871	      5.58304501	      5.24104922	     -0.34882867	      1.05741131	      0.03692028	     36.80153793	    -15.84167504	     -4.43399008	     63.68546798	      1.11152110	    -17.00911196	    -16.30033453	      0.00000000	     80.77634665	     -3.12064278	     -1.28731608	     94.75909108	      1.65385814	     -6.29245340	     -7.27740276	      0.00000000	    -64.63227425	     -1.43986047	     -5.18602559	     84.36470431	     -7.55844364	      2.39849389	     44.08124856	     88.64809537	      0.00000000	      0.00000000	     89.41853974	     -4.72803910	     15.59059313	     38.59488504	     79.59765483	      0.00000000	      0.00000000
     12.37500000	      0.18690234	      5.18630016	      5.24510965	     -0.34988452	      1.05613684	      0.03649769	     38.50578755	    -15.72576766	     -4.05194244	     66.80704417	      1.16600288	    -16.77646435	    -16.11187926	      0.00000000	     79.97059269	     -3.22011477	     -1.35448963	     92.32187568	      1.61132070	     -6.75375217	     -7.03333946	      0.00000000	    -64.25198931	     -1.13295276	     -4.83008791	     84.47381664	     -7.53869468	      2.39466089	     44.09490919	     88.66014176	      0.00000000	      0.00000000	     89.30852219	     -4.29538589	     14.02391907	     38.46516308	     82.89144557	      0.00000000	      0.00000000
     12.38333333	      0.20661632	      4.57979932	      5.31480678	     -0.35053276	      1.05526745	      0.03621508	     39.75988710	    -15.39501474	     -3.97845574	     69.75651732	      1.21748090	    -16.23065644	    -16.34045325	      0.00000000	     78.73730221	     -3.44767661	     -1.20212063	     89.71090470	      1.56575066	     -7.42186039	     -6.89488538	      0.00000000	    -64.13491299	     -0.61632691	     -4.31148512	     84.60664179	     -7.56384388	      2.67481807	     44.02450058	     88.67226288	      0.00000000	      0.00000000	     89.28652035	     -4.31237718	     13.87348574	     38.42354610	     82.96534776	      0.00000000	      0.00000000
     12.39166667	      0.20316675	      4.13956659	      5.50612930	     -0.35124989	      1.05459154	      0.03551224	     41.10137277	    -15.35529011	     -3.84248018	     72.76313799	      1.26995633	    -15.99694065	    -16.52259788	      0.00000000	     77.37957122	     -3.15610719	     -0.99861525	     87.14287843	      1.52093015	     -8.01482754	     -7.40968281	      0.00000000	    -64.03795318	     -0.04601157	     -4.02664342	     84.77972078	     -7.49139353	      2.85390278	     43.95078275	     88.69104922	      0.00000000	      0.00000000	     89.28365874	     -4.48573767	     14.04078283	     38.46191185	     81.87188155	      0.00000000	      0.00000000
     12.40000000	      0.37266702	      3.73816416	      5.44414859	     -0.35162503	      1.05410024	      0.03509515	     42.35143169	    -15.19839824	     -3.54781021	     75.75994534	      1.32226049	    -15.65075206	    -16.54840954	      0.00000000	     75.64050023	     -3.37171064	     -0.98822735	     84.46286231	      1.47415504	     -8.54018826	     -7.44082304	      0.00000000	    -64.11048182	      0.30628424	     -3.61610147	     84.92589924	     -7.50784881	      3.16484561	     43.92716621	     88.66488213	      0.00000000	      0.00000000	     89.22925265	     -4.44313169	     13.61981528	     38.41315238	     82.89872285	      0.00000000	      0.00000000
     12.40833333	      0.85513181	      3.23150242	      5.28546895	     -0.35143984	      1.05413609	      0.03481764	     43.20390567	    -14.86634977	     -3.26967955	     78.68208033	      1.37326136	    -15.19428201	    -16.36440222	      0.00000000	     73.51382545	     -3.75730028	     -0.90451299	     81.89071535	      1.42926261	     -9.05107876	     -7.42185993	      0.00000000	    -64.47785804	      0.66992645	     -3.09032021	     85.08172749	     -7.48446215	      3.55156788	     43.86636608	     88.66701667	      0.00000000	      0.00000000	     89.18314037	     -4.61389009	     13.74731276	     38.40776542	     82.54339958	      0.00000000	      0.00000000
     12.41666667	      1.00591016	      2.97693666	      5.40699059	     -0.35182513	      1.05406509	      0.03401611	     44.47237506	    -15.04901444	     -3.14676653	     81.50569493	      1.42254274	    -14.94495911	    -16.64250924	      0.00000000	     71.55212740	     -3.71412715	     -1.04515718	     79.07406055	      1.38010271	     -9.67445298	     -7.51633810	      0.00000000	    -64.58475654	      1.13416040	     -2.96910336	     85.27436517	     -7.34363267	      3.79318314	     43.76979951	     88.67768573	      0.00000000	      0.00000000	     89.15239120	     -4.86236131	     13.84117717	     38.46150216	     81.66697945	      0.00000000	      0.00000000
     12.42500000	      1.12418150	      2.62486427	      5.34885543	     -0.35208345	      1.05385793	      0.03346910	     45.87584015	    -15.00463592	     -2.86410396	     84.32073535	      1.47167446	    -14.58695410	    -16.39588823	      0.00000000	     69.57583222	     -3.90547183	     -1.13827244	     76.25025420	      1.33081799	    -10.42305139	     -7.57560488	      0.00000000	    -64.64527594	      1.49061559	     -2.66144734	     85.44468503	     -7.24051054	      4.08509372	     43.70277782	     88.65978602	      0.00000000	      0.00000000	     89.06233869	     -4.93297101	     13.45447142	     38.44906791	     82.62049525	      0.00000000	      0.00000000
     12.43333333	      1.15655467	      2.10429130	      5.40211437	     -0.35238887	      1.05359710	      0.03268465	     47.36860086	    -14.96074780	     -2.75391525	     87.08502648	      1.51992044	    -14.10629352	    -15.67676558	      0.00000000	     67.68433678	     -4.07881507	     -0.90800749	     73.51893274	      1.28314744	    -10.83983288	     -6.67339630	      0.00000000	    -64.61776555	      2.04484432	     -2.25794502	     85.60241177	     -7.04073768	      4.11750862	     43.66057298	     88.81293938	      0.00000000	      0.00000000	     88.94166758	     -5.06588078	     13.06012916	     38.54570781	     80.31788193	      0.00000000	      0.00000000
     12.44166667	      1.37648947	      1.89860803	      5.39040998	     -0.35241840	      1.05398463	      0.03198641	     48.56331023	    -15.01881541	     -2.39217547	     89.69707745	      1.56550933	    -13.52741212	    -15.98221906	      0.00000000	     65.32653796	     -4.01735299	     -0.96000296	     70.59264225	      1.23207403	    -11.37376374	     -7.41790448	      0.00000000	    -64.82951741	      2.38651458	     -2.12996268	     85.83426751	     -6.91330644	      4.58994825	     43.49802391	     88.69858495	      0.00000000	      0.00000000	     88.93420494	     -5.50806737	     13.77121384	     38.59175792	     80.69180447	      0.00000000	      0.00000000
     12.45000000	      1.43401166	      1.58969786	      5.29425782	     -0.35242650	      1.05390035	      0.03131288	     50.12859411	    -15.04890126	     -2.04342655	     92.30445800	      1.61101671	    -12.88478142	    -15.28640555	      0.00000000	     63.24959238	     -4.14171935	     -0.94722979	     67.82068618	      1.18369427	    -12.13954690	     -7.44343655	      0.00000000	    -64.84583976	      2.70991514	     -1.86355799	     85.99876400	     -6.76300603	      4.88839309	     43.40654079	     88.66965419	      0.00000000	      0.00000000	     88.74548268	     -5.55277206	     13.10271068	     38.64164761	     82.32961915	      0.00000000	      0.00000000
     12.45833333	      1.65611087	      1.23443215	      5.25972002	     -0.35220918	      1.05424129	      0.03062752	     51.44086799	    -15.06105295	     -1.84396427	     94.75380590	      1.65376589	    -12.38523313	    -15.17461984	      0.00000000	     60.93008051	     -4.28218676	     -0.85179154	     65.00943939	      1.13462876	    -12.70875210	     -7.23311876	      0.00000000	    -65.04067805	      3.12378719	     -1.56752546	     86.17168477	     -6.55934654	      5.07828433	     43.29196212	     88.70862308	      0.00000000	      0.00000000	     88.63787420	     -5.88812763	     13.35021344	     38.75081314	     81.06701884	      0.00000000	      0.00000000
     12.46666667	      1.57791232	      0.45751938	      5.22667635	     -0.35223517	      1.05405009	      0.03020589	     53.07754196	    -14.73209882	     -1.99776761	     97.06302146	      1.69406931	    -11.92822075	    -15.04094397	      0.00000000	     59.06203326	     -4.65386937	     -0.29735436	     62.36754313	      1.08851897	    -13.08185489	     -7.07474782	      0.00000000	    -64.92094715	      3.73190736	     -0.90850821	     86.32492246	     -6.33838345	      5.15749052	     43.21221343	     88.57205692	      0.00000000	      0.00000000	     88.47260619	     -6.08609433	     13.13865814	     38.80992016	     80.79333377	      0.00000000	      0.00000000
     12.47500000	      1.79961279	      0.50873586	      5.05919489	     -0.35173941	      1.05429652	      0.02925471	     54.54103491	    -15.05759877	     -1.33157206	     99.43744460	      1.73551081	    -10.96223789	    -14.16757545	      0.00000000	     56.65663763	     -4.67247579	     -0.69115724	     59.75376024	      1.04289986	    -13.89968870	     -7.13981665	      0.00000000	    -65.10553964	      3.84630900	     -0.94386701	     86.47498353	     -6.17438008	      5.61698240	     43.04167010	     88.68877257	      0.00000000	      0.00000000	     88.28488507	     -6.29079904	     12.92265247	     38.85644577	     81.66775165	      0.00000000	      0.00000000
     12.48333333	      1.69082094	     -0.26284283	      5.07160003	     -0.35169326	      1.05414679	      0.02874493	     56.20938571	    -14.78357617	     -1.53940949	    101.53853055	      1.77218168	    -10.34757347	    -14.18477021	      0.00000000	     54.81121986	     -5.03991849	     -0.10152898	     57.18363193	      0.99804266	    -14.32201029	     -7.01655759	      0.00000000	    -64.96187499	      4.49952534	     -0.30031215	     86.60909597	     -5.96515130	      5.70776538	     42.97133919	     88.67790410	      0.00000000	      0.00000000	     88.11476112	     -6.50064516	     12.82441341	     38.90476985	     81.47502158	      0.00000000	      0.00000000
